<mxfile host="drawio-plugin" agent="Mozilla/5.0 (X11; Linux x86_64) AppleWebKit/537.36 (KHTML, like Gecko) Chrome/122.0.0.0 Safari/537.36" modified="2025-10-04T18:40:14.986Z" etag="ZEzwWbdYGB0eePADXVEd" version="22.1.22" type="embed">
  <diagram name="Seite-1" id="tv3RCUC1lsHie5otSo7a">
    <mxGraphModel dx="1803" dy="1067" grid="1" gridSize="10" guides="1" tooltips="1" connect="1" arrows="1" fold="1" page="1" pageScale="1" pageWidth="827" pageHeight="1169" math="0" shadow="0">
      <root>
        <mxCell id="0" />
        <mxCell id="1" parent="0" />
        <mxCell id="zjGeTOThquZhaolVEsW3-189" value="&amp;lt;&amp;lt;interface&amp;gt;&amp;gt;&lt;br&gt;&lt;b&gt;AccountExecutor&lt;/b&gt;&lt;div&gt;&lt;br/&gt;&lt;/div&gt;" style="swimlane;fontStyle=0;align=center;verticalAlign=top;childLayout=stackLayout;horizontal=1;startSize=40;horizontalStack=0;resizeParent=1;resizeParentMax=0;resizeLast=0;collapsible=0;marginBottom=0;html=1;whiteSpace=wrap;" parent="1" vertex="1">
          <mxGeometry x="421" y="108" width="406" height="170" as="geometry" />
        </mxCell>
        <mxCell id="zjGeTOThquZhaolVEsW3-190" value="" style="line;strokeWidth=1;fillColor=none;align=left;verticalAlign=middle;spacingTop=-1;spacingLeft=3;spacingRight=3;rotatable=0;labelPosition=right;points=[];portConstraint=eastwest;" parent="zjGeTOThquZhaolVEsW3-189" vertex="1">
          <mxGeometry y="40" width="406" height="8" as="geometry" />
        </mxCell>
        <mxCell id="zjGeTOThquZhaolVEsW3-191" value="&lt;div&gt;createAccount(CreateAccountRequest), boolean,&amp;nbsp;&lt;/div&gt;&lt;div&gt;&lt;span style=&quot;white-space: pre;&quot;&gt;&#x9;&lt;/span&gt;boolean): AccountResponse&lt;/div&gt;" style="text;html=1;strokeColor=none;fillColor=none;align=left;verticalAlign=middle;spacingLeft=4;spacingRight=4;overflow=hidden;rotatable=0;points=[[0,0.5],[1,0.5]];portConstraint=eastwest;whiteSpace=wrap;" parent="zjGeTOThquZhaolVEsW3-189" vertex="1">
          <mxGeometry y="48" width="406" height="42" as="geometry" />
        </mxCell>
        <mxCell id="zjGeTOThquZhaolVEsW3-192" value="&lt;div&gt;getAccountsPartial(AccountSortParameter, SortDirectionParameter,&amp;nbsp;&lt;/div&gt;&lt;div&gt;&lt;span style=&quot;white-space: pre;&quot;&gt;&#x9;&lt;/span&gt;UUID, String): List&amp;lt;PartialAccountResponse&amp;gt;&lt;/div&gt;" style="text;html=1;strokeColor=none;fillColor=none;align=left;verticalAlign=middle;spacingLeft=4;spacingRight=4;overflow=hidden;rotatable=0;points=[[0,0.5],[1,0.5]];portConstraint=eastwest;whiteSpace=wrap;" parent="zjGeTOThquZhaolVEsW3-189" vertex="1">
          <mxGeometry y="90" width="406" height="40" as="geometry" />
        </mxCell>
        <mxCell id="zjGeTOThquZhaolVEsW3-193" value="&lt;div&gt;getAccountsFull(AccountSortParameter, SortDirectionParameter,&amp;nbsp;&lt;/div&gt;&lt;div&gt;UUID, Set&amp;lt;AccountState&amp;gt;, String): List&amp;lt;PartialAccountResponse&amp;gt;&lt;/div&gt;" style="text;html=1;strokeColor=none;fillColor=none;align=left;verticalAlign=middle;spacingLeft=4;spacingRight=4;overflow=hidden;rotatable=0;points=[[0,0.5],[1,0.5]];portConstraint=eastwest;whiteSpace=wrap;" parent="zjGeTOThquZhaolVEsW3-189" vertex="1">
          <mxGeometry y="130" width="406" height="40" as="geometry" />
        </mxCell>
        <mxCell id="zjGeTOThquZhaolVEsW3-194" value="&amp;lt;&amp;lt;interface&amp;gt;&amp;gt;&lt;br&gt;&lt;b&gt;AdminPanelExecutor&lt;/b&gt;&lt;div&gt;&lt;br&gt;&lt;/div&gt;" style="swimlane;fontStyle=0;align=center;verticalAlign=top;childLayout=stackLayout;horizontal=1;startSize=40;horizontalStack=0;resizeParent=1;resizeParentMax=0;resizeLast=0;collapsible=0;marginBottom=0;html=1;whiteSpace=wrap;" parent="1" vertex="1">
          <mxGeometry x="460" width="150" height="88" as="geometry" />
        </mxCell>
        <mxCell id="zjGeTOThquZhaolVEsW3-195" value="" style="line;strokeWidth=1;fillColor=none;align=left;verticalAlign=middle;spacingTop=-1;spacingLeft=3;spacingRight=3;rotatable=0;labelPosition=right;points=[];portConstraint=eastwest;" parent="zjGeTOThquZhaolVEsW3-194" vertex="1">
          <mxGeometry y="40" width="150" height="8" as="geometry" />
        </mxCell>
        <mxCell id="zjGeTOThquZhaolVEsW3-196" value="shutdown()" style="text;html=1;strokeColor=none;fillColor=none;align=left;verticalAlign=middle;spacingLeft=4;spacingRight=4;overflow=hidden;rotatable=0;points=[[0,0.5],[1,0.5]];portConstraint=eastwest;whiteSpace=wrap;" parent="zjGeTOThquZhaolVEsW3-194" vertex="1">
          <mxGeometry y="48" width="150" height="20" as="geometry" />
        </mxCell>
        <mxCell id="zjGeTOThquZhaolVEsW3-197" value="restart()" style="text;html=1;strokeColor=none;fillColor=none;align=left;verticalAlign=middle;spacingLeft=4;spacingRight=4;overflow=hidden;rotatable=0;points=[[0,0.5],[1,0.5]];portConstraint=eastwest;whiteSpace=wrap;" parent="zjGeTOThquZhaolVEsW3-194" vertex="1">
          <mxGeometry y="68" width="150" height="20" as="geometry" />
        </mxCell>
        <mxCell id="zjGeTOThquZhaolVEsW3-198" value="&amp;lt;&amp;lt;interface&amp;gt;&amp;gt;&lt;br&gt;&lt;b&gt;PersonalExecutor&lt;/b&gt;&lt;div&gt;&lt;br&gt;&lt;/div&gt;" style="swimlane;fontStyle=0;align=center;verticalAlign=top;childLayout=stackLayout;horizontal=1;startSize=40;horizontalStack=0;resizeParent=1;resizeParentMax=0;resizeLast=0;collapsible=0;marginBottom=0;html=1;whiteSpace=wrap;" parent="1" vertex="1">
          <mxGeometry x="417" y="300" width="410" height="148" as="geometry" />
        </mxCell>
        <mxCell id="zjGeTOThquZhaolVEsW3-199" value="" style="line;strokeWidth=1;fillColor=none;align=left;verticalAlign=middle;spacingTop=-1;spacingLeft=3;spacingRight=3;rotatable=0;labelPosition=right;points=[];portConstraint=eastwest;" parent="zjGeTOThquZhaolVEsW3-198" vertex="1">
          <mxGeometry y="40" width="410" height="8" as="geometry" />
        </mxCell>
        <mxCell id="zjGeTOThquZhaolVEsW3-200" value="submitEmailVerification(SubmitEmailVerificationRequest)" style="text;html=1;strokeColor=none;fillColor=none;align=left;verticalAlign=middle;spacingLeft=4;spacingRight=4;overflow=hidden;rotatable=0;points=[[0,0.5],[1,0.5]];portConstraint=eastwest;whiteSpace=wrap;" parent="zjGeTOThquZhaolVEsW3-198" vertex="1">
          <mxGeometry y="48" width="410" height="20" as="geometry" />
        </mxCell>
        <mxCell id="zjGeTOThquZhaolVEsW3-201" value="signup(CreateAccountRequest, boolean): AccountWithTokensResponse" style="text;html=1;strokeColor=none;fillColor=none;align=left;verticalAlign=middle;spacingLeft=4;spacingRight=4;overflow=hidden;rotatable=0;points=[[0,0.5],[1,0.5]];portConstraint=eastwest;whiteSpace=wrap;" parent="zjGeTOThquZhaolVEsW3-198" vertex="1">
          <mxGeometry y="68" width="410" height="20" as="geometry" />
        </mxCell>
        <mxCell id="zjGeTOThquZhaolVEsW3-202" value="refresh(RefreshRequest): AccountWithTokensResponse" style="text;html=1;strokeColor=none;fillColor=none;align=left;verticalAlign=middle;spacingLeft=4;spacingRight=4;overflow=hidden;rotatable=0;points=[[0,0.5],[1,0.5]];portConstraint=eastwest;whiteSpace=wrap;" parent="zjGeTOThquZhaolVEsW3-198" vertex="1">
          <mxGeometry y="88" width="410" height="20" as="geometry" />
        </mxCell>
        <mxCell id="zjGeTOThquZhaolVEsW3-203" value="login(CredentialsReuqest): AccountWithTokensResponse" style="text;html=1;strokeColor=none;fillColor=none;align=left;verticalAlign=middle;spacingLeft=4;spacingRight=4;overflow=hidden;rotatable=0;points=[[0,0.5],[1,0.5]];portConstraint=eastwest;whiteSpace=wrap;" parent="zjGeTOThquZhaolVEsW3-198" vertex="1">
          <mxGeometry y="108" width="410" height="20" as="geometry" />
        </mxCell>
        <mxCell id="zjGeTOThquZhaolVEsW3-204" value="requestEmailVerification(boolean)" style="text;html=1;strokeColor=none;fillColor=none;align=left;verticalAlign=middle;spacingLeft=4;spacingRight=4;overflow=hidden;rotatable=0;points=[[0,0.5],[1,0.5]];portConstraint=eastwest;whiteSpace=wrap;" parent="zjGeTOThquZhaolVEsW3-198" vertex="1">
          <mxGeometry y="128" width="410" height="20" as="geometry" />
        </mxCell>
        <mxCell id="zjGeTOThquZhaolVEsW3-205" value="&amp;lt;&amp;lt;interface&amp;gt;&amp;gt;&lt;br&gt;&lt;b&gt;ReplicExecutor&lt;/b&gt;&lt;div&gt;&lt;br&gt;&lt;/div&gt;" style="swimlane;fontStyle=0;align=center;verticalAlign=top;childLayout=stackLayout;horizontal=1;startSize=40;horizontalStack=0;resizeParent=1;resizeParentMax=0;resizeLast=0;collapsible=0;marginBottom=0;html=1;whiteSpace=wrap;" parent="1" vertex="1">
          <mxGeometry x="15.5" y="138" width="381" height="140" as="geometry" />
        </mxCell>
        <mxCell id="zjGeTOThquZhaolVEsW3-206" value="" style="line;strokeWidth=1;fillColor=none;align=left;verticalAlign=middle;spacingTop=-1;spacingLeft=3;spacingRight=3;rotatable=0;labelPosition=right;points=[];portConstraint=eastwest;" parent="zjGeTOThquZhaolVEsW3-205" vertex="1">
          <mxGeometry y="40" width="381" height="8" as="geometry" />
        </mxCell>
        <mxCell id="zjGeTOThquZhaolVEsW3-207" value="&lt;div&gt;getReplics(ReplicSortParameter, SortDirectionParameter,&amp;nbsp;&lt;/div&gt;&lt;div&gt;&lt;span style=&quot;white-space: pre;&quot;&gt;&#x9;&lt;/span&gt;UUID, UUID, Set&amp;lt;ReplicState&amp;gt;, String): List&amp;lt;ReplicResponse&amp;gt;&lt;/div&gt;" style="text;html=1;strokeColor=none;fillColor=none;align=left;verticalAlign=middle;spacingLeft=4;spacingRight=4;overflow=hidden;rotatable=0;points=[[0,0.5],[1,0.5]];portConstraint=eastwest;whiteSpace=wrap;" parent="zjGeTOThquZhaolVEsW3-205" vertex="1">
          <mxGeometry y="48" width="381" height="32" as="geometry" />
        </mxCell>
        <mxCell id="zjGeTOThquZhaolVEsW3-208" value="createReplic(CreateReplicRequest): ReplicResponse" style="text;html=1;strokeColor=none;fillColor=none;align=left;verticalAlign=middle;spacingLeft=4;spacingRight=4;overflow=hidden;rotatable=0;points=[[0,0.5],[1,0.5]];portConstraint=eastwest;whiteSpace=wrap;" parent="zjGeTOThquZhaolVEsW3-205" vertex="1">
          <mxGeometry y="80" width="381" height="20" as="geometry" />
        </mxCell>
        <mxCell id="zjGeTOThquZhaolVEsW3-209" value="getReplicContent(UUID, String): String" style="text;html=1;strokeColor=none;fillColor=none;align=left;verticalAlign=middle;spacingLeft=4;spacingRight=4;overflow=hidden;rotatable=0;points=[[0,0.5],[1,0.5]];portConstraint=eastwest;whiteSpace=wrap;" parent="zjGeTOThquZhaolVEsW3-205" vertex="1">
          <mxGeometry y="100" width="381" height="20" as="geometry" />
        </mxCell>
        <mxCell id="2" value="updateReplicState(Replic, ReplicState)" style="text;html=1;strokeColor=none;fillColor=none;align=left;verticalAlign=middle;spacingLeft=4;spacingRight=4;overflow=hidden;rotatable=0;points=[[0,0.5],[1,0.5]];portConstraint=eastwest;whiteSpace=wrap;" parent="zjGeTOThquZhaolVEsW3-205" vertex="1">
          <mxGeometry y="120" width="381" height="20" as="geometry" />
        </mxCell>
        <mxCell id="zjGeTOThquZhaolVEsW3-210" value="&amp;lt;&amp;lt;interface&amp;gt;&amp;gt;&lt;br&gt;&lt;b&gt;ReportExecutor&lt;/b&gt;&lt;div&gt;&lt;br&gt;&lt;/div&gt;" style="swimlane;fontStyle=0;align=center;verticalAlign=top;childLayout=stackLayout;horizontal=1;startSize=40;horizontalStack=0;resizeParent=1;resizeParentMax=0;resizeLast=0;collapsible=0;marginBottom=0;html=1;whiteSpace=wrap;" parent="1" vertex="1">
          <mxGeometry x="30.5" y="310" width="351" height="120" as="geometry" />
        </mxCell>
        <mxCell id="zjGeTOThquZhaolVEsW3-211" value="" style="line;strokeWidth=1;fillColor=none;align=left;verticalAlign=middle;spacingTop=-1;spacingLeft=3;spacingRight=3;rotatable=0;labelPosition=right;points=[];portConstraint=eastwest;" parent="zjGeTOThquZhaolVEsW3-210" vertex="1">
          <mxGeometry y="40" width="351" height="8" as="geometry" />
        </mxCell>
        <mxCell id="zjGeTOThquZhaolVEsW3-212" value="&lt;div&gt;getReports(ReportSortParameter, SortDirectionParameter,&amp;nbsp;&lt;/div&gt;&lt;div&gt;UUID, String): List&amp;lt;ReportResponse&amp;gt;&lt;/div&gt;" style="text;html=1;strokeColor=none;fillColor=none;align=left;verticalAlign=middle;spacingLeft=4;spacingRight=4;overflow=hidden;rotatable=0;points=[[0,0.5],[1,0.5]];portConstraint=eastwest;whiteSpace=wrap;" parent="zjGeTOThquZhaolVEsW3-210" vertex="1">
          <mxGeometry y="48" width="351" height="32" as="geometry" />
        </mxCell>
        <mxCell id="zjGeTOThquZhaolVEsW3-213" value="createReport(CreateReportRequest, UUID): ReportResponse" style="text;html=1;strokeColor=none;fillColor=none;align=left;verticalAlign=middle;spacingLeft=4;spacingRight=4;overflow=hidden;rotatable=0;points=[[0,0.5],[1,0.5]];portConstraint=eastwest;whiteSpace=wrap;" parent="zjGeTOThquZhaolVEsW3-210" vertex="1">
          <mxGeometry y="80" width="351" height="20" as="geometry" />
        </mxCell>
        <mxCell id="zjGeTOThquZhaolVEsW3-214" value="updateReport(UUID, ReportState): ReportResponse" style="text;html=1;strokeColor=none;fillColor=none;align=left;verticalAlign=middle;spacingLeft=4;spacingRight=4;overflow=hidden;rotatable=0;points=[[0,0.5],[1,0.5]];portConstraint=eastwest;whiteSpace=wrap;" parent="zjGeTOThquZhaolVEsW3-210" vertex="1">
          <mxGeometry y="100" width="351" height="20" as="geometry" />
        </mxCell>
        <mxCell id="zjGeTOThquZhaolVEsW3-215" value="&amp;lt;&amp;lt;interface&amp;gt;&amp;gt;&lt;br&gt;&lt;b&gt;ServerConfigExecutor&lt;/b&gt;&lt;div&gt;&lt;br&gt;&lt;/div&gt;" style="swimlane;fontStyle=0;align=center;verticalAlign=top;childLayout=stackLayout;horizontal=1;startSize=40;horizontalStack=0;resizeParent=1;resizeParentMax=0;resizeLast=0;collapsible=0;marginBottom=0;html=1;whiteSpace=wrap;" parent="1" vertex="1">
          <mxGeometry x="46" y="460" width="320" height="88" as="geometry" />
        </mxCell>
        <mxCell id="zjGeTOThquZhaolVEsW3-216" value="" style="line;strokeWidth=1;fillColor=none;align=left;verticalAlign=middle;spacingTop=-1;spacingLeft=3;spacingRight=3;rotatable=0;labelPosition=right;points=[];portConstraint=eastwest;" parent="zjGeTOThquZhaolVEsW3-215" vertex="1">
          <mxGeometry y="40" width="320" height="8" as="geometry" />
        </mxCell>
        <mxCell id="zjGeTOThquZhaolVEsW3-217" value="getServerConfig(): ServerConfigDto" style="text;html=1;strokeColor=none;fillColor=none;align=left;verticalAlign=middle;spacingLeft=4;spacingRight=4;overflow=hidden;rotatable=0;points=[[0,0.5],[1,0.5]];portConstraint=eastwest;whiteSpace=wrap;" parent="zjGeTOThquZhaolVEsW3-215" vertex="1">
          <mxGeometry y="48" width="320" height="20" as="geometry" />
        </mxCell>
        <mxCell id="zjGeTOThquZhaolVEsW3-218" value="setServerConfig(ServerConfigDto): ServerConfigDto" style="text;html=1;strokeColor=none;fillColor=none;align=left;verticalAlign=middle;spacingLeft=4;spacingRight=4;overflow=hidden;rotatable=0;points=[[0,0.5],[1,0.5]];portConstraint=eastwest;whiteSpace=wrap;" parent="zjGeTOThquZhaolVEsW3-215" vertex="1">
          <mxGeometry y="68" width="320" height="20" as="geometry" />
        </mxCell>
        <mxCell id="zjGeTOThquZhaolVEsW3-219" value="&amp;lt;&amp;lt;interface&amp;gt;&amp;gt;&lt;br&gt;&lt;b&gt;AuthenticationExecutor&lt;/b&gt;&lt;div&gt;&lt;br&gt;&lt;/div&gt;" style="swimlane;fontStyle=0;align=center;verticalAlign=top;childLayout=stackLayout;horizontal=1;startSize=40;horizontalStack=0;resizeParent=1;resizeParentMax=0;resizeLast=0;collapsible=0;marginBottom=0;html=1;whiteSpace=wrap;" parent="1" vertex="1">
          <mxGeometry x="1" width="410" height="108" as="geometry" />
        </mxCell>
        <mxCell id="zjGeTOThquZhaolVEsW3-220" value="" style="line;strokeWidth=1;fillColor=none;align=left;verticalAlign=middle;spacingTop=-1;spacingLeft=3;spacingRight=3;rotatable=0;labelPosition=right;points=[];portConstraint=eastwest;" parent="zjGeTOThquZhaolVEsW3-219" vertex="1">
          <mxGeometry y="40" width="410" height="8" as="geometry" />
        </mxCell>
        <mxCell id="zjGeTOThquZhaolVEsW3-221" value="getMe(): AccountResponse" style="text;html=1;strokeColor=none;fillColor=none;align=left;verticalAlign=middle;spacingLeft=4;spacingRight=4;overflow=hidden;rotatable=0;points=[[0,0.5],[1,0.5]];portConstraint=eastwest;whiteSpace=wrap;" parent="zjGeTOThquZhaolVEsW3-219" vertex="1">
          <mxGeometry y="48" width="410" height="20" as="geometry" />
        </mxCell>
        <mxCell id="zjGeTOThquZhaolVEsW3-222" value="updateMe(UpdateAccountRequest): AccountResponse" style="text;html=1;strokeColor=none;fillColor=none;align=left;verticalAlign=middle;spacingLeft=4;spacingRight=4;overflow=hidden;rotatable=0;points=[[0,0.5],[1,0.5]];portConstraint=eastwest;whiteSpace=wrap;" parent="zjGeTOThquZhaolVEsW3-219" vertex="1">
          <mxGeometry y="68" width="410" height="20" as="geometry" />
        </mxCell>
        <mxCell id="zjGeTOThquZhaolVEsW3-223" value="getQuotaProgress(): QuotaProgressResponse" style="text;html=1;strokeColor=none;fillColor=none;align=left;verticalAlign=middle;spacingLeft=4;spacingRight=4;overflow=hidden;rotatable=0;points=[[0,0.5],[1,0.5]];portConstraint=eastwest;whiteSpace=wrap;" parent="zjGeTOThquZhaolVEsW3-219" vertex="1">
          <mxGeometry y="88" width="410" height="20" as="geometry" />
        </mxCell>
      </root>
    </mxGraphModel>
  </diagram>
</mxfile>
